<svg xmlns="http://www.w3.org/2000/svg" viewBox="0 0 2379.64 3162.99" shape-rendering="geometricPrecision" text-rendering="geometricPrecision" image-rendering="optimizeQuality" fill-rule="evenodd" clip-rule="evenodd"><path d="M103.78 1477.84c-15.6-14.75-29.4-30.93-41.44-48.25C24.05 1374.5 4.42 1308.38.65 1240.5c-3.57-64.93 7.41-131.93 30.38-192.2 19.02-49.89 46.5-95.97 81.08-133.62-24.48-63.58-32.44-129.67-26.43-193.91 6.86-73.3 31.83-143.78 71.06-205.05 39.22-61.18 92.98-113.76 157.44-151.25 58.59-34.05 125.86-55.55 198.94-59.67 40.42-110.31 117.72-189.97 211.2-240.43 57.48-31 121.31-50.68 186.33-59.32 64.26-8.55 129.82-6.21 191.52 6.62 98.12 20.42 187.53 67.46 249.58 139.85 104.16-32.9 220.81-26.77 324.73 10.07 56.11 19.89 109.08 48.89 154.82 85.62 46.89 37.65 86.32 83.53 114.06 136.29 34.86 66.31 51.27 142.22 41.29 224.9 67.89 18.23 130.35 52.43 184.56 98.23 65.34 55.19 118.93 127.68 155.36 209.22 36.26 81.16 55.62 171.66 52.79 263.39-3.57 115.02-41.49 231.55-123.85 333.94l-288.58 1649.79H1576.5l65.54-1781.24h503.86c44.27-65.24 65.12-136.69 67.3-207.04 2.04-66.32-12.08-132.01-38.45-191.1-26.22-58.68-64.54-110.62-111.06-149.92-52.21-44.11-114.52-71.77-180.73-73.82l-114.26-3.54 38.02-107.23c25.59-72.18 18.71-136.09-8.61-188.06-16.81-31.97-41.41-60.36-71.06-84.17-30.81-24.74-67.06-44.47-105.95-58.26-86.87-30.79-184.33-31.37-260.69 8.78l-72.9 38.35-39.16-72.55c-33.48-62.07-101.55-102.31-180.06-118.64-43.74-9.1-90.37-10.75-136.13-4.65-45.04 5.98-89.22 19.59-129.01 41.06-70.87 38.25-127.07 102.71-146.26 194.87l-15.14 72.75-73.8-6.93c-63.67-5.96-121.84 8.6-170.39 36.82-41 23.85-75.43 57.64-100.75 97.17-25.3 39.49-41.36 84.28-45.64 130.13-4.92 52.59 5.47 107.31 34.86 157.86l38.57 66.34-63 43.77c-32.28 22.44-58.16 60.06-74.86 103.87-15 39.37-22.21 82.55-19.94 123.77 2.11 38.25 12.43 74.41 32.36 103.08 13.51 19.46 32.1 35.84 56.23 47.3h455.13l126.56 1781.24H398.24L103.75 1477.83zm1366.86-856.5c59.46 0 107.68 48.21 107.68 107.68 0 59.46-48.21 107.68-107.68 107.68-59.46 0-107.68-48.21-107.68-107.68 0-59.46 48.21-107.68 107.68-107.68zm-330.21 333.79c59.46 0 107.68 48.21 107.68 107.68 0 59.46-48.21 107.68-107.68 107.68-59.46 0-107.67-48.21-107.67-107.68 0-59.46 48.2-107.68 107.67-107.68zm-466.6-204.58c59.46 0 107.68 48.21 107.68 107.68 0 59.46-48.21 107.68-107.68 107.68-59.46 0-107.68-48.21-107.68-107.68 0-59.46 48.21-107.68 107.68-107.68zM1419.55 3163H994.58L868.02 1381.76h617.08L1419.55 3163z" fill-rule="nonzero"/></svg>